<svg xmlns="http://www.w3.org/2000/svg" xmlns:xlink="http://www.w3.org/1999/xlink" width="30.304" height="22.357" viewBox="0 0 30.304 22.357">
  <defs>
    <clipPath id="clip-path">
      <rect id="長方形_1705" data-name="長方形 1705" width="30.304" height="22.357" fill="#fff"/>
    </clipPath>
  </defs>
  <g id="グループ_5297" data-name="グループ 5297" clip-path="url(#clip-path)">
    <path id="パス_3592" data-name="パス 3592" d="M29.19,19.53H28.077a.584.584,0,0,1-.047.23.618.618,0,0,1-.221.268.6.6,0,0,1-.156.076.584.584,0,0,1-.176.027H2.827a.581.581,0,0,1-.23-.047.617.617,0,0,1-.268-.221.6.6,0,0,1-.076-.156.586.586,0,0,1-.027-.176V2.827a.584.584,0,0,1,.047-.23.618.618,0,0,1,.221-.268.6.6,0,0,1,.156-.076.586.586,0,0,1,.176-.027h24.65a.582.582,0,0,1,.23.047.617.617,0,0,1,.268.221.6.6,0,0,1,.076.156.586.586,0,0,1,.027.176v16.7H30.3V2.827a2.811,2.811,0,0,0-.224-1.1,2.84,2.84,0,0,0-1.762-1.6A2.814,2.814,0,0,0,27.477,0H2.827a2.812,2.812,0,0,0-1.1.224,2.839,2.839,0,0,0-1.6,1.763A2.814,2.814,0,0,0,0,2.827v16.7a2.811,2.811,0,0,0,.224,1.1,2.84,2.84,0,0,0,1.762,1.6,2.814,2.814,0,0,0,.84.128h24.65a2.812,2.812,0,0,0,1.1-.224,2.839,2.839,0,0,0,1.6-1.763,2.812,2.812,0,0,0,.128-.84Z" transform="translate(0 0)" fill="#fff"/>
    <path id="パス_3593" data-name="パス 3593" d="M2.827,1.114V0a2.812,2.812,0,0,0-1.1.224,2.84,2.84,0,0,0-1.6,1.763A2.814,2.814,0,0,0,0,2.827v.666a3.767,3.767,0,0,0,.159,1.05,4.757,4.757,0,0,0,.283.733,4.932,4.932,0,0,0,.633.992,3.841,3.841,0,0,0,.885.8l11.149,7.105a3.451,3.451,0,0,0,1,.424,4.281,4.281,0,0,0,2.094,0,3.451,3.451,0,0,0,1-.424L28.344,7.066a3.766,3.766,0,0,0,.8-.7,4.757,4.757,0,0,0,.466-.633,4.932,4.932,0,0,0,.5-1.067,3.84,3.84,0,0,0,.2-1.175V2.827a2.812,2.812,0,0,0-.224-1.1,2.839,2.839,0,0,0-1.763-1.6A2.812,2.812,0,0,0,27.477,0H2.827V2.227h24.65a.584.584,0,0,1,.23.047.618.618,0,0,1,.268.221.6.6,0,0,1,.076.156.584.584,0,0,1,.027.176v.666a1.565,1.565,0,0,1-.069.426,2.539,2.539,0,0,1-.151.389,2.713,2.713,0,0,1-.345.542,1.645,1.645,0,0,1-.365.338L16,12.293a1.244,1.244,0,0,1-.354.145,2.055,2.055,0,0,1-.985,0,1.244,1.244,0,0,1-.354-.145L3.157,5.188A1.565,1.565,0,0,1,2.835,4.9a2.546,2.546,0,0,1-.247-.336,2.717,2.717,0,0,1-.272-.582,1.644,1.644,0,0,1-.089-.489V2.827a.582.582,0,0,1,.046-.23.618.618,0,0,1,.221-.268.6.6,0,0,1,.156-.076.584.584,0,0,1,.176-.027Z" transform="translate(0 0)" fill="#fff"/>
  </g>
</svg>
