<svg xmlns="http://www.w3.org/2000/svg" xmlns:xlink="http://www.w3.org/1999/xlink" width="35.605" height="26.268" viewBox="0 0 35.605 26.268">
  <defs>
    <clipPath id="clip-path">
      <rect id="長方形_1953" data-name="長方形 1953" width="35.605" height="26.268" fill="#106bb8"/>
    </clipPath>
  </defs>
  <g id="グループ_7991" data-name="グループ 7991" clip-path="url(#clip-path)">
    <path id="パス_3896" data-name="パス 3896" d="M34.3,22.947H32.989a.686.686,0,0,1-.055.27.726.726,0,0,1-.26.315.7.7,0,0,1-.184.089.687.687,0,0,1-.206.031H3.321a.683.683,0,0,1-.27-.055.725.725,0,0,1-.315-.26.7.7,0,0,1-.089-.184.688.688,0,0,1-.031-.206V3.321a.686.686,0,0,1,.055-.27.726.726,0,0,1,.26-.315.7.7,0,0,1,.184-.089.689.689,0,0,1,.206-.031H32.284a.683.683,0,0,1,.27.055.725.725,0,0,1,.315.26.7.7,0,0,1,.089.184.689.689,0,0,1,.031.206V22.947h2.617V3.321a3.3,3.3,0,0,0-.263-1.293A3.337,3.337,0,0,0,33.272.151,3.307,3.307,0,0,0,32.284,0H3.321A3.3,3.3,0,0,0,2.028.263,3.336,3.336,0,0,0,.151,2.334,3.306,3.306,0,0,0,0,3.321V22.947A3.3,3.3,0,0,0,.263,24.24a3.337,3.337,0,0,0,2.071,1.878,3.307,3.307,0,0,0,.987.151H32.284A3.3,3.3,0,0,0,33.577,26a3.336,3.336,0,0,0,1.878-2.071,3.3,3.3,0,0,0,.151-.987Z" transform="translate(0 0)" fill="#106bb8"/>
    <path id="パス_3897" data-name="パス 3897" d="M3.321,1.308V0A3.3,3.3,0,0,0,2.028.263,3.337,3.337,0,0,0,.151,2.334,3.307,3.307,0,0,0,0,3.321V4.1A4.426,4.426,0,0,0,.186,5.337,5.59,5.59,0,0,0,.519,6.2a5.8,5.8,0,0,0,.744,1.166A4.512,4.512,0,0,0,2.3,8.3L15.4,16.65a4.055,4.055,0,0,0,1.17.5,5.03,5.03,0,0,0,2.461,0,4.055,4.055,0,0,0,1.17-.5L33.3,8.3a4.424,4.424,0,0,0,.94-.82,5.59,5.59,0,0,0,.548-.744,5.8,5.8,0,0,0,.583-1.254A4.512,4.512,0,0,0,35.606,4.1V3.321a3.3,3.3,0,0,0-.263-1.293A3.336,3.336,0,0,0,33.272.151,3.3,3.3,0,0,0,32.284,0H3.321V2.617H32.284a.686.686,0,0,1,.27.055.726.726,0,0,1,.314.26.7.7,0,0,1,.089.184.687.687,0,0,1,.031.206V4.1a1.839,1.839,0,0,1-.082.5,2.983,2.983,0,0,1-.177.457,3.187,3.187,0,0,1-.4.637,1.933,1.933,0,0,1-.429.4L18.8,14.443a1.462,1.462,0,0,1-.416.171,2.415,2.415,0,0,1-1.157,0,1.462,1.462,0,0,1-.416-.171L3.709,6.1a1.839,1.839,0,0,1-.378-.338,2.992,2.992,0,0,1-.29-.4,3.192,3.192,0,0,1-.319-.684,1.932,1.932,0,0,1-.1-.575V3.321a.684.684,0,0,1,.055-.27.726.726,0,0,1,.26-.315.7.7,0,0,1,.184-.089.686.686,0,0,1,.206-.031Z" transform="translate(0 0)" fill="#106bb8"/>
  </g>
</svg>
