<svg xmlns="http://www.w3.org/2000/svg" width="16.869" height="22.001" viewBox="0 0 16.869 22.001">
  <g id="電話の受話器のアイコン素材" transform="translate(-59.712 0.001)">
    <path id="パス_3794" data-name="パス 3794" d="M61.22.932c-1.512.98-1.809,4.045-1.238,6.543a22.561,22.561,0,0,0,2.983,7.011,23.43,23.43,0,0,0,5.185,5.583c2.048,1.54,4.967,2.518,6.479,1.538a7.656,7.656,0,0,0,1.952-2.093l-.812-1.252-2.233-3.443c-.166-.256-1.207-.022-1.735.277a5.034,5.034,0,0,0-1.37,1.488c-.489.283-.9,0-1.754-.393A10.421,10.421,0,0,1,65.5,12.841a10.42,10.42,0,0,1-1.763-4.265c-.011-.942-.1-1.431.357-1.762a5.034,5.034,0,0,0,1.918-.644c.489-.361,1.127-1.215.961-1.471L64.74,1.255,63.928,0A7.656,7.656,0,0,0,61.22.932Z" transform="translate(0 0)" fill="#106bb8"/>
  </g>
</svg>
