<svg xmlns="http://www.w3.org/2000/svg" xmlns:xlink="http://www.w3.org/1999/xlink" width="19.089" height="14.083" viewBox="0 0 19.089 14.083">
  <defs>
    <clipPath id="clip-path">
      <rect id="長方形_1705" data-name="長方形 1705" width="19.089" height="14.083"/>
    </clipPath>
  </defs>
  <g id="グループ_7928" data-name="グループ 7928" transform="translate(0 2)">
    <g id="グループ_5297" data-name="グループ 5297" transform="translate(0 -2)" clip-path="url(#clip-path)">
      <path id="パス_3592" data-name="パス 3592" d="M18.388,12.3h-.7a.368.368,0,0,1-.029.145.389.389,0,0,1-.139.169.376.376,0,0,1-.1.048.368.368,0,0,1-.111.017H1.781a.366.366,0,0,1-.145-.029.389.389,0,0,1-.169-.139.375.375,0,0,1-.048-.1A.369.369,0,0,1,1.4,12.3V1.781a.368.368,0,0,1,.029-.145.389.389,0,0,1,.139-.169.377.377,0,0,1,.1-.048A.369.369,0,0,1,1.781,1.4H17.309a.366.366,0,0,1,.145.029.389.389,0,0,1,.169.139.376.376,0,0,1,.048.1.369.369,0,0,1,.017.111V12.3h1.4V1.781a1.771,1.771,0,0,0-.141-.693A1.789,1.789,0,0,0,17.838.081,1.773,1.773,0,0,0,17.309,0H1.781a1.771,1.771,0,0,0-.693.141A1.789,1.789,0,0,0,.081,1.251,1.772,1.772,0,0,0,0,1.781V12.3A1.771,1.771,0,0,0,.141,13,1.789,1.789,0,0,0,1.251,14a1.773,1.773,0,0,0,.529.081H17.309A1.771,1.771,0,0,0,18,13.942a1.789,1.789,0,0,0,1.007-1.11,1.771,1.771,0,0,0,.081-.529Z" transform="translate(0 0)"/>
      <path id="パス_3593" data-name="パス 3593" d="M1.781.7V0a1.771,1.771,0,0,0-.693.141A1.789,1.789,0,0,0,.081,1.251,1.773,1.773,0,0,0,0,1.781V2.2a2.373,2.373,0,0,0,.1.661,3,3,0,0,0,.178.462,3.107,3.107,0,0,0,.4.625,2.419,2.419,0,0,0,.558.5L8.258,8.927a2.174,2.174,0,0,0,.627.267,2.7,2.7,0,0,0,1.319,0,2.174,2.174,0,0,0,.627-.267l7.023-4.476a2.372,2.372,0,0,0,.5-.44,3,3,0,0,0,.294-.4,3.107,3.107,0,0,0,.313-.672,2.419,2.419,0,0,0,.124-.74v-.42a1.771,1.771,0,0,0-.141-.693A1.789,1.789,0,0,0,17.838.081,1.771,1.771,0,0,0,17.309,0H1.781V1.4H17.309a.368.368,0,0,1,.145.029.389.389,0,0,1,.169.139.376.376,0,0,1,.048.1.368.368,0,0,1,.017.111V2.2a.986.986,0,0,1-.044.268,1.6,1.6,0,0,1-.1.245,1.709,1.709,0,0,1-.217.341,1.036,1.036,0,0,1-.23.213L10.078,7.744a.784.784,0,0,1-.223.092,1.295,1.295,0,0,1-.62,0,.784.784,0,0,1-.223-.092L1.989,3.268a.986.986,0,0,1-.2-.181,1.6,1.6,0,0,1-.156-.212,1.712,1.712,0,0,1-.171-.366A1.036,1.036,0,0,1,1.4,2.2v-.42a.367.367,0,0,1,.029-.145.389.389,0,0,1,.139-.169.375.375,0,0,1,.1-.048A.368.368,0,0,1,1.781,1.4Z" transform="translate(0 0)"/>
    </g>
  </g>
</svg>
