<svg xmlns="http://www.w3.org/2000/svg" width="23.33" height="30.427" viewBox="0 0 23.33 30.427">
  <path id="パス_3794" data-name="パス 3794" d="M61.8,1.289c-2.091,1.356-2.5,5.594-1.712,9.049a31.2,31.2,0,0,0,4.125,9.7,32.4,32.4,0,0,0,7.171,7.721c2.832,2.129,6.869,3.483,8.96,2.127a10.587,10.587,0,0,0,2.7-2.895l-1.123-1.732L78.83,20.493c-.23-.354-1.669-.03-2.4.384a6.962,6.962,0,0,0-1.895,2.058c-.676.391-1.243,0-2.426-.543-1.455-.669-3.09-2.749-4.392-4.632-1.189-1.957-2.421-4.3-2.438-5.9-.015-1.3-.139-1.979.493-2.437a6.962,6.962,0,0,0,2.652-.89c.676-.5,1.559-1.681,1.329-2.035L66.665,1.736,65.542,0A10.589,10.589,0,0,0,61.8,1.289Z" transform="translate(-59.712 0.001)" fill="#106bb8"/>
</svg>
