<svg id="電話の受話器のアイコン素材" xmlns="http://www.w3.org/2000/svg" width="19.026" height="24.814" viewBox="0 0 19.026 24.814">
  <path id="パス_3794" data-name="パス 3794" d="M61.413,1.051c-1.7,1.106-2.04,4.562-1.4,7.379a25.445,25.445,0,0,0,3.364,7.908,26.426,26.426,0,0,0,5.848,6.3c2.31,1.737,5.6,2.84,7.307,1.735a8.634,8.634,0,0,0,2.2-2.361L77.822,20.6,75.3,16.712c-.187-.289-1.361-.025-1.957.313A5.678,5.678,0,0,0,71.8,18.7c-.552.319-1.013,0-1.979-.443-1.186-.546-2.52-2.242-3.582-3.778-.97-1.6-1.974-3.505-1.989-4.811-.012-1.062-.113-1.614.4-1.987a5.678,5.678,0,0,0,2.163-.726c.552-.407,1.271-1.371,1.084-1.66L65.382,1.416,64.466,0A8.635,8.635,0,0,0,61.413,1.051Z" transform="translate(-59.712 0.001)" fill="#fff"/>
</svg>
