<svg xmlns="http://www.w3.org/2000/svg" width="21.684" height="28.281" viewBox="0 0 21.684 28.281">
  <g id="電話の受話器のアイコン素材" transform="translate(-59.712 0.001)">
    <path id="パス_3794" data-name="パス 3794" d="M61.651,1.2c-1.943,1.26-2.325,5.2-1.591,8.41a29,29,0,0,0,3.834,9.012A30.117,30.117,0,0,0,70.559,25.8c2.632,1.979,6.385,3.237,8.328,1.977A9.841,9.841,0,0,0,81.4,25.083l-1.044-1.61-2.871-4.426c-.213-.329-1.551-.028-2.231.357a6.471,6.471,0,0,0-1.761,1.913c-.629.363-1.155,0-2.255-.5-1.352-.622-2.872-2.555-4.082-4.305-1.1-1.819-2.25-3.995-2.266-5.483-.014-1.211-.129-1.839.459-2.265a6.471,6.471,0,0,0,2.465-.828c.629-.464,1.449-1.562,1.235-1.891L66.175,1.614,65.131,0A9.842,9.842,0,0,0,61.651,1.2Z" transform="translate(0)" fill="#fff"/>
  </g>
</svg>
